HIERARCHY
ROOT Hips
{
    OFFSET 0.000000 0.000000 0.000000
    CHANNELS 6 Xposition Yposition Zposition Zrotation Xrotation Yrotation
    JOINT Spine
    {
        OFFSET -0.000000 7.236184 0.000000
        CHANNELS 3 Zrotation Xrotation Yrotation
        JOINT Spine1
        {
            OFFSET -0.000000 20.420147 0.000000
            CHANNELS 3 Zrotation Xrotation Yrotation
            JOINT Neck
            {
                OFFSET -0.000000 20.336288 1.848754
                CHANNELS 3 Zrotation Xrotation Yrotation
                JOINT Head
                {
                    OFFSET -0.000000 12.354461 -1.764923
                    CHANNELS 3 Zrotation Xrotation Yrotation
                    End Site
                    {
                        OFFSET -0.000000 22.061537 0.000000
                    }
                }
            }
            JOINT LeftShoulder
            {
                OFFSET 3.573296 18.396038 -0.314103
                CHANNELS 3 Zrotation Xrotation Yrotation
                JOINT LeftArm
                {
                    OFFSET 10.880760 0.000000 0.000000
                    CHANNELS 3 Zrotation Xrotation Yrotation
                    JOINT LeftForeArm
                    {
                        OFFSET 27.185530 0.000000 0.000000
                        CHANNELS 3 Zrotation Xrotation Yrotation
                        JOINT LeftHand
                        {
                            OFFSET 27.825975 0.000000 0.000000
                            CHANNELS 3 Zrotation Xrotation Yrotation
                            End Site
                            {
                                OFFSET 13.236923 0.000000 0.000000
                            }
                        }
                    }
                }
            }
            JOINT RightShoulder
            {
                OFFSET -3.474926 18.396038 -0.314103
                CHANNELS 3 Zrotation Xrotation Yrotation
                JOINT RightArm
                {
                    OFFSET -10.880760 0.000000 0.000000
                    CHANNELS 3 Zrotation Xrotation Yrotation
                    JOINT RightForeArm
                    {
                        OFFSET -27.185530 0.000000 0.000000
                        CHANNELS 3 Zrotation Xrotation Yrotation
                        JOINT RightHand
                        {
                            OFFSET -27.825975 0.000000 0.000000
                            CHANNELS 3 Zrotation Xrotation Yrotation
                            End Site
                            {
                                OFFSET -13.236923 0.000000 0.000000
                            }
                        }
                    }
                }
            }
        }
    }
    JOINT LeftUpLeg
    {
        OFFSET 8.824615 0.000000 0.000000
        CHANNELS 3 Zrotation Xrotation Yrotation
        JOINT LeftLeg
        {
            OFFSET -0.000000 -35.111282 0.000000
            CHANNELS 3 Zrotation Xrotation Yrotation
            JOINT LeftFoot
            {
                OFFSET -0.000000 -42.324711 0.000000
                CHANNELS 3 Zrotation Xrotation Yrotation
                JOINT LeftToeBase
                {
                    OFFSET -0.000000 -5.735999 13.236923
                    CHANNELS 3 Zrotation Xrotation Yrotation
                    End Site
                    {
                        OFFSET -0.000000 0.000000 3.529846
                    }
                }
            }
        }
    }
    JOINT RightUpLeg
    {
        OFFSET -8.824615 0.000000 0.000000
        CHANNELS 3 Zrotation Xrotation Yrotation
        JOINT RightLeg
        {
            OFFSET -0.000000 -35.111282 0.000000
            CHANNELS 3 Zrotation Xrotation Yrotation
            JOINT RightFoot
            {
                OFFSET -0.000000 -42.324711 0.000000
                CHANNELS 3 Zrotation Xrotation Yrotation
                JOINT RightToeBase
                {
                    OFFSET -0.000000 -5.735999 13.236923
                    CHANNELS 3 Zrotation Xrotation Yrotation
                    End Site
                    {
                        OFFSET -0.000000 0.000000 3.529846
                    }
                }
            }
        }
    }
}
MOTION
Frames:    4
Frame Time:    0.008333
-5.367985    81.558022    99.535286    -0.695302    -5.828046    -176.642288    -1.282085    -14.632264    0.441510    -0.315659    5.059106    0.620137    3.813859    5.917190    -1.933956    -0.069578    -7.103294    -2.390941    1.330220    17.662540    -1.911312    -50.750786    46.481533    -34.869480    -1.644449    -6.192437    -14.920225    17.332539    -5.871738    3.527595    5.904917    18.538925    -6.173647    47.888958    47.108223    29.331511    -1.982187    -8.495872    20.209124    -14.131783    -7.581521    -4.597456    1.525943    -6.834298    -2.189894    -0.072671    13.093804    16.577194    -5.339662    -8.752420    -27.994497    0.493306    -65.439789    -0.798765    -2.732461    -1.628630    4.320515    3.694050    6.870177    5.713503    -3.301999    -8.113493    -16.152176    0.454897    0.026389    -0.491989    
-5.357899    81.532761    99.449158    -0.659759    -5.800154    -176.615509    -1.313081    -14.602772    0.412401    -0.265756    5.119812    0.592626    3.815143    5.683221    -1.931377    -0.033403    -6.942004    -2.389064    1.264349    17.736769    -1.797140    -51.590267    45.832096    -34.171516    -1.724325    -6.851334    -14.904037    16.543055    -6.540259    3.704703    5.940322    18.567293    -6.273053    48.321690    46.792938    28.887915    -1.925054    -8.866931    20.432053    -13.800726    -7.974634    -4.584267    1.537362    -6.907690    -2.203456    -0.035974    13.437890    15.797752    -5.300863    -9.052333    -27.258970    0.479717    -63.437458    -0.747197    -2.663875    -1.691550    4.175308    3.663242    7.169580    5.700945    -3.274781    -8.301780    -16.040888    0.454971    -0.053181    -0.492123    
-5.347730    81.507767    99.362961    -0.624424    -5.774028    -176.588226    -1.344082    -14.572803    0.383551    -0.217198    5.178189    0.565188    3.816787    5.446337    -1.929051    0.003969    -6.780618    -2.387452    1.197687    17.810686    -1.681899    -52.414677    45.159698    -33.489594    -1.808085    -7.516046    -14.872835    15.757771    -7.219378    3.865712    5.976540    18.595552    -6.372095    48.749138    46.470085    28.448540    -1.860372    -9.235655    20.651375    -13.460625    -8.368073    -4.564629    1.549314    -6.979790    -2.217769    -0.002454    13.787195    14.884495    -5.232631    -9.373029    -26.387398    0.459785    -61.024837    -0.688478    -2.596112    -1.752899    4.032411    3.631983    7.463290    5.697213    -3.248958    -8.486736    -15.940897    0.454583    -0.131525    -0.491755    
-5.337394    81.483292    99.276588    -0.589523    -5.751700    -176.559814    -1.375540    -14.541785    0.355130    -0.170719    5.231190    0.538567    3.818563    5.204003    -1.927656    0.044198    -6.619393    -2.386567    1.129739    17.883968    -1.565499    -53.223984    44.462578    -32.822311    -1.898355    -8.179640    -14.817750    14.982790    -7.901958    4.008369    6.014290    18.624174    -6.471875    49.172470    46.135899    28.012857    -1.785972    -9.597831    20.862797    -13.106356    -8.758160    -4.539449    1.562100    -7.050005    -2.233253    0.027357    14.137140    13.834477    -5.131124    -9.711627    -25.375746    0.432566    -58.163574    -0.623041    -2.529907    -1.811642    3.893443    3.600991    7.746151    5.708765    -3.225959    -8.665353    -15.860802    0.453581    -0.208395    -0.490723    
